<svg width="83" height="32" viewBox="0 0 83 32" fill="none" xmlns="http://www.w3.org/2000/svg">
<path d="M1.99989 6.7923C2.79313 4.37195 4.06032 2.23298 6.47014 1.04171C8.62426 -0.0231773 10.8177 -0.318447 13.1559 0.374272C15.9939 1.21506 18.0332 3.59503 19.8853 5.70822C20.2597 6.13543 21.1129 7.12118 21.4004 7.55669L21.4239 7.59167C21.4285 7.59876 21.433 7.60581 21.4376 7.6129C21.7415 7.86849 22.3545 8.81739 22.6383 9.16808C27.0314 14.5963 29.099 21.722 24.042 27.4668C22.8853 28.7809 20.7579 30.2836 19.0139 30.8593C15.5003 32.2397 11.068 32.4565 7.54157 31.0152C7.44943 30.9775 7.35794 30.9381 7.26717 30.8975C4.9069 29.8645 2.87487 28.1931 1.66571 25.9588C0.840099 24.4368 0.313002 22.7809 0.11093 21.0743C-0.371861 17.2468 0.806492 10.4429 1.99989 6.7923Z" fill="url(#paint0_linear_35_519)"/>
<g clip-path="url(#clip0_35_519)">
<mask id="mask0_35_519" style="mask-type:alpha" maskUnits="userSpaceOnUse" x="13" y="12" width="5" height="5">
<path d="M15.55 12.412C15.5858 12.3193 15.7231 12.3207 15.7567 12.4142L15.8506 12.6751C15.9908 13.0649 16.2202 13.4198 16.522 13.7137C16.8239 14.0075 17.1905 14.233 17.5951 14.3735L17.8978 14.4786C17.9941 14.5121 17.9943 14.6425 17.8981 14.6762L17.5947 14.7826C17.2011 14.9206 16.8436 15.1391 16.5471 15.4229C16.2506 15.7067 16.0222 16.049 15.8778 16.4259L15.759 16.7359C15.7239 16.8276 15.5886 16.8278 15.5531 16.7362L15.4291 16.4163C15.2841 16.0421 15.0562 15.7024 14.7611 15.4206C14.466 15.1388 14.1107 14.9216 13.7196 14.7839L13.4108 14.6752C13.3151 14.6415 13.3148 14.5119 13.4104 14.4779L13.7253 14.3657C14.1147 14.227 14.4683 14.0093 14.7618 13.7276C15.0553 13.4459 15.2819 13.1067 15.426 12.7334L15.55 12.412Z" fill="#3186FF"/>
</mask>
<g mask="url(#mask0_35_519)">
<g filter="url(#filter0_f_35_519)">
<path d="M15.8927 16.9654C17.59 16.9654 18.966 15.8959 18.966 14.5767C18.966 13.2574 17.59 12.188 15.8927 12.188C14.1953 12.188 12.8193 13.2574 12.8193 14.5767C12.8193 15.8959 14.1953 16.9654 15.8927 16.9654Z" fill="#29402A"/>
</g>
<g filter="url(#filter1_f_35_519)">
<path d="M13.8612 15.5685C14.4544 15.5685 14.9353 15.0809 14.9353 14.4793C14.9353 13.8778 14.4544 13.3901 13.8612 13.3901C13.268 13.3901 12.7871 13.8778 12.7871 14.4793C12.7871 15.0809 13.268 15.5685 13.8612 15.5685Z" fill="#29402A"/>
</g>
<g filter="url(#filter2_f_35_519)">
<path d="M13.6425 15.6588C14.2357 15.6588 14.7166 15.1712 14.7166 14.5696C14.7166 13.9681 14.2357 13.4805 13.6425 13.4805C13.0493 13.4805 12.5684 13.9681 12.5684 14.5696C12.5684 15.1712 13.0493 15.6588 13.6425 15.6588Z" fill="#29402A"/>
</g>
<g filter="url(#filter3_f_35_519)">
<path d="M16.3786 12.4964C16.0337 13.5781 14.3637 14.3568 13.6895 14.3668L15.5946 11.3472L16.3786 12.4964Z" fill="#29402A"/>
</g>
<g filter="url(#filter4_f_35_519)">
<path d="M16.3239 12.1507C15.979 13.2324 14.309 14.0111 13.6348 14.0211L15.5399 11.0015L16.3239 12.1507Z" fill="#29402A"/>
</g>
<g filter="url(#filter5_f_35_519)">
<path d="M16.3864 16.5379C16.0415 15.4562 14.3715 14.6775 13.6973 14.6675L15.6024 17.6871L16.3864 16.5379Z" fill="#29402A"/>
</g>
<g filter="url(#filter6_f_35_519)">
<path d="M16.4177 17.1536C16.0727 16.0719 14.4028 15.2932 13.7285 15.2832L15.6337 18.3029L16.4177 17.1536Z" fill="#29402A"/>
</g>
</g>
</g>
<path d="M17.2849 19.4095C17.2842 18.8413 17.7504 18.3824 18.3291 18.3837C18.9098 18.385 19.3835 18.8492 19.3878 19.4201L18.3371 19.4179L19.3881 19.4213L19.3884 19.4226L19.3877 19.4254C19.3877 19.4273 19.388 19.4298 19.388 19.432C19.388 19.4368 19.3882 19.443 19.3881 19.4494C19.3879 19.4621 19.3881 19.4786 19.3875 19.4976C19.3863 19.5358 19.3835 19.5863 19.379 19.6477C19.3698 19.7706 19.3515 19.9382 19.3156 20.1385C19.2442 20.5372 19.1005 21.079 18.8071 21.6557C18.2031 22.8427 16.9995 24.1049 14.7372 24.612C12.4753 25.1189 10.8188 24.4977 9.73416 23.6894C9.20713 23.2965 8.83058 22.8714 8.58417 22.5439C8.4604 22.3794 8.36737 22.2367 8.30294 22.1303C8.27082 22.0773 8.24519 22.033 8.22664 21.9992C8.21745 21.9825 8.21005 21.9676 8.20408 21.9562C8.20108 21.9505 8.19716 21.9452 8.19497 21.9409C8.19395 21.9389 8.193 21.9365 8.19216 21.9349L8.19125 21.9311C8.1973 21.9276 8.27083 21.8921 9.13301 21.481L8.18965 21.9301C7.93268 21.416 8.14685 20.7975 8.66734 20.5493C9.18792 20.3015 9.81906 20.5178 10.0764 21.0319C10.0819 21.0419 10.0917 21.0602 10.1068 21.0851C10.1393 21.1388 10.1935 21.2228 10.2703 21.3249C10.4251 21.5306 10.6641 21.7992 10.994 22.0452C11.6236 22.5145 12.6485 22.9546 14.2514 22.5954C15.8545 22.2361 16.5728 21.4052 16.9235 20.7161C17.1072 20.355 17.1988 20.0124 17.2437 19.7618C17.266 19.6376 17.2762 19.5391 17.2808 19.4771C17.2831 19.4462 17.2841 19.4243 17.2845 19.4135C17.2845 19.4118 17.2845 19.41 17.2845 19.4082L17.2849 19.4095Z" fill="#283F29"/>
<path d="M74.0615 8.00684C84.6706 7.62645 85.6038 23.2306 74.9902 23.9981C72.5799 24.0327 70.6557 23.5208 68.7783 21.7979C67.3833 20.4863 66.6375 18.6672 66.5185 16.708C66.2193 11.778 69.5767 8.28971 74.0615 8.00684ZM79.1211 15.5693C78.889 12.8446 76.6373 10.8358 74.0898 11.0801C71.5373 11.3251 69.6551 13.7387 69.8877 16.4688C70.1202 19.1991 72.3795 21.2098 74.9316 20.957C77.4783 20.7048 79.3531 18.294 79.1211 15.5693Z" fill="#29402A"/>
<path d="M38.3506 8.19549C41.0538 7.64181 44.4828 8.21204 46.2335 10.5793C47.4303 12.1982 47.6338 14.4678 47.3565 16.4318C47.3565 16.937 47.0034 17.9878 46.8165 18.4758C47.9269 19.9007 48.6075 21.1764 49.0001 22.9894C48.0957 23.3189 47.1831 23.6261 46.2637 23.9094C45.7771 22.9462 45.5974 21.9614 44.8301 21.0392C43.7799 22.04 43.211 22.6626 41.793 23.2707C39.8433 24.082 37.5856 24.2879 35.6046 23.5236C31.9591 22.1169 32.2527 16.9355 35.7833 15.6017C37.4491 14.9726 40.3878 14.6954 42.0313 15.4074C42.5231 15.4692 43.4893 15.9581 43.9512 16.1847C44.0033 15.6136 44.0215 15.0484 43.9893 14.4845C43.8657 12.2053 41.8449 10.8136 39.7022 11.0656C38.0571 11.2592 36.7639 12.1029 36.961 13.9416C36.0476 14.0966 34.6525 14.3053 33.7413 14.3869C33.1598 11.0593 35.2929 8.82195 38.3506 8.19549ZM38.9542 17.7424C38.2277 17.819 37.4375 17.9498 36.9463 18.5705C36.7036 18.8797 36.594 19.276 36.6417 19.6691C36.8326 21.2259 39.1542 21.1271 40.2129 20.7619C41.1865 20.4552 42.1415 19.7468 42.754 18.9191C41.557 18.0939 40.4011 17.72 38.9542 17.7424Z" fill="#29402A"/>
<path d="M52.9631 8.00355C56.9446 7.85989 56.2562 12.1056 55.9083 14.9425C55.7228 16.4542 55.1335 19.4391 55.7107 20.8674C56.0954 21.8192 57.3594 21.5335 58.0588 21.0599C59.2226 20.2714 60.0769 19.0862 60.7265 17.7932C61.4317 16.4057 62.1119 14.663 61.9831 13.058C61.8822 11.8018 60.9026 10.7776 61.2333 9.4456C61.3546 8.95831 61.6579 8.54448 62.0727 8.29923C62.5306 8.02391 63.0734 7.95494 63.5798 8.10767C65.832 8.80684 64.8493 12.7738 64.366 14.4496C63.2135 18.3125 59.5126 24.5536 54.939 23.9606C50.5184 23.3875 52.4027 16.9451 52.6735 13.9267C52.7573 12.9924 52.9799 11.6719 52.3937 10.8485C51.6815 9.88358 50.4065 11.3002 49.8355 11.8187C49.5357 11.4486 49.2567 11.0601 49 10.6552C49.0747 10.5312 49.1565 10.4119 49.2446 10.298C50.1979 9.04901 51.431 8.16749 52.9631 8.00355Z" fill="#29402A"/>
<defs>
<filter id="filter0_f_35_519" x="11.327" y="10.6957" width="9.13109" height="7.76195" filterUnits="userSpaceOnUse" color-interpolation-filters="sRGB">
<feFlood flood-opacity="0" result="BackgroundImageFix"/>
<feBlend mode="normal" in="SourceGraphic" in2="BackgroundImageFix" result="shape"/>
<feGaussianBlur stdDeviation="0.746152" result="effect1_foregroundBlur_35_519"/>
</filter>
<filter id="filter1_f_35_519" x="10.1341" y="10.7372" width="7.4544" height="7.48419" filterUnits="userSpaceOnUse" color-interpolation-filters="sRGB">
<feFlood flood-opacity="0" result="BackgroundImageFix"/>
<feBlend mode="normal" in="SourceGraphic" in2="BackgroundImageFix" result="shape"/>
<feGaussianBlur stdDeviation="1.32649" result="effect1_foregroundBlur_35_519"/>
</filter>
<filter id="filter2_f_35_519" x="9.91538" y="10.8275" width="7.4544" height="7.48419" filterUnits="userSpaceOnUse" color-interpolation-filters="sRGB">
<feFlood flood-opacity="0" result="BackgroundImageFix"/>
<feBlend mode="normal" in="SourceGraphic" in2="BackgroundImageFix" result="shape"/>
<feGaussianBlur stdDeviation="1.32649" result="effect1_foregroundBlur_35_519"/>
</filter>
<filter id="filter3_f_35_519" x="11.0365" y="8.69418" width="7.99542" height="8.3255" filterUnits="userSpaceOnUse" color-interpolation-filters="sRGB">
<feFlood flood-opacity="0" result="BackgroundImageFix"/>
<feBlend mode="normal" in="SourceGraphic" in2="BackgroundImageFix" result="shape"/>
<feGaussianBlur stdDeviation="1.32649" result="effect1_foregroundBlur_35_519"/>
</filter>
<filter id="filter4_f_35_519" x="10.9818" y="8.34848" width="7.99542" height="8.3255" filterUnits="userSpaceOnUse" color-interpolation-filters="sRGB">
<feFlood flood-opacity="0" result="BackgroundImageFix"/>
<feBlend mode="normal" in="SourceGraphic" in2="BackgroundImageFix" result="shape"/>
<feGaussianBlur stdDeviation="1.32649" result="effect1_foregroundBlur_35_519"/>
</filter>
<filter id="filter5_f_35_519" x="11.0443" y="12.0145" width="7.99542" height="8.3255" filterUnits="userSpaceOnUse" color-interpolation-filters="sRGB">
<feFlood flood-opacity="0" result="BackgroundImageFix"/>
<feBlend mode="normal" in="SourceGraphic" in2="BackgroundImageFix" result="shape"/>
<feGaussianBlur stdDeviation="1.32649" result="effect1_foregroundBlur_35_519"/>
</filter>
<filter id="filter6_f_35_519" x="11.0755" y="12.6302" width="7.99542" height="8.3255" filterUnits="userSpaceOnUse" color-interpolation-filters="sRGB">
<feFlood flood-opacity="0" result="BackgroundImageFix"/>
<feBlend mode="normal" in="SourceGraphic" in2="BackgroundImageFix" result="shape"/>
<feGaussianBlur stdDeviation="1.32649" result="effect1_foregroundBlur_35_519"/>
</filter>
<linearGradient id="paint0_linear_35_519" x1="7.29782" y1="-0.0143504" x2="18.3454" y2="31.0646" gradientUnits="userSpaceOnUse">
<stop stop-color="#E2F88F"/>
<stop offset="0.716866" stop-color="#E2F88F"/>
<stop offset="1" stop-color="#F7FCDA"/>
</linearGradient>
<clipPath id="clip0_35_519">
<rect width="4.64138" height="4.47691" fill="white" transform="translate(13.3369 12.3384)"/>
</clipPath>
</defs>
</svg>
