<svg width="76" height="24" viewBox="0 0 76 24" fill="none" xmlns="http://www.w3.org/2000/svg">
<path d="M1.4814 5.09422C2.06899 3.27896 3.00764 1.67473 4.7927 0.781279C6.38834 -0.017383 8.01311 -0.238835 9.74513 0.280704C11.8473 0.911296 13.3579 2.69628 14.7298 4.28116C15.0072 4.60157 15.6392 5.34089 15.8522 5.66752L15.8696 5.69375C15.8729 5.69907 15.8763 5.70436 15.8797 5.70967C16.1048 5.90137 16.5589 6.61304 16.7691 6.87606C20.0233 10.9472 21.5548 16.2915 17.8089 20.6001C16.952 21.5857 15.3762 22.7127 14.0844 23.1445C11.4817 24.1798 8.19854 24.3424 5.58635 23.2614C5.5181 23.2331 5.45032 23.2036 5.38309 23.1731C3.63474 22.3983 2.12954 21.1448 1.23386 19.4691C0.622295 18.3276 0.231853 17.0857 0.08217 15.8058C-0.275452 12.9351 0.597401 7.83216 1.4814 5.09422Z" fill="url(#paint0_linear_39_547)"/>
<g clip-path="url(#clip0_39_547)">
<mask id="mask0_39_547" style="mask-type:alpha" maskUnits="userSpaceOnUse" x="9" y="9" width="5" height="4">
<path d="M11.5187 9.30884C11.5452 9.23932 11.647 9.24044 11.6719 9.31051L11.7414 9.50622C11.8452 9.79859 12.0152 10.0647 12.2388 10.2851C12.4624 10.5055 12.734 10.6746 13.0336 10.78L13.2579 10.8588C13.3292 10.8839 13.3294 10.9818 13.2581 11.0071L13.0333 11.0868C12.7418 11.1903 12.477 11.3542 12.2574 11.5671C12.0377 11.7799 11.8685 12.0366 11.7615 12.3193L11.6736 12.5518C11.6476 12.6206 11.5473 12.6207 11.521 12.552L11.4292 12.3121C11.3218 12.0314 11.153 11.7767 10.9344 11.5653C10.7158 11.354 10.4526 11.1911 10.1629 11.0878L9.93412 11.0062C9.86325 10.981 9.86306 10.8838 9.93383 10.8583L10.1671 10.7741C10.4556 10.6701 10.7175 10.5069 10.9349 10.2956C11.1523 10.0843 11.3201 9.82992 11.4269 9.5499L11.5187 9.30884Z" fill="#3186FF"/>
</mask>
<g mask="url(#mask0_39_547)">
<g filter="url(#filter0_f_39_547)">
<path d="M11.7717 12.7241C13.029 12.7241 14.0482 11.9221 14.0482 10.9326C14.0482 9.9432 13.029 9.14111 11.7717 9.14111C10.5144 9.14111 9.49512 9.9432 9.49512 10.9326C9.49512 11.9221 10.5144 12.7241 11.7717 12.7241Z" fill="#29402A"/>
</g>
<g filter="url(#filter1_f_39_547)">
<path d="M10.2673 11.6763C10.7067 11.6763 11.0629 11.3105 11.0629 10.8594C11.0629 10.4082 10.7067 10.0425 10.2673 10.0425C9.8279 10.0425 9.47168 10.4082 9.47168 10.8594C9.47168 11.3105 9.8279 11.6763 10.2673 11.6763Z" fill="#29402A"/>
</g>
<g filter="url(#filter2_f_39_547)">
<path d="M10.1052 11.7441C10.5446 11.7441 10.9008 11.3784 10.9008 10.9272C10.9008 10.4761 10.5446 10.1104 10.1052 10.1104C9.66579 10.1104 9.30957 10.4761 9.30957 10.9272C9.30957 11.3784 9.66579 11.7441 10.1052 11.7441Z" fill="#29402A"/>
</g>
<g filter="url(#filter3_f_39_547)">
<path d="M12.1316 9.37221C11.8761 10.1835 10.6391 10.7675 10.1396 10.775L11.5509 8.51025L12.1316 9.37221Z" fill="#29402A"/>
</g>
<g filter="url(#filter4_f_39_547)">
<path d="M12.0916 9.11293C11.8361 9.92418 10.5991 10.5082 10.0996 10.5157L11.5108 8.25098L12.0916 9.11293Z" fill="#29402A"/>
</g>
<g filter="url(#filter5_f_39_547)">
<path d="M12.1375 12.4033C11.882 11.592 10.645 11.008 10.1455 11.0005L11.5567 13.2652L12.1375 12.4033Z" fill="#29402A"/>
</g>
<g filter="url(#filter6_f_39_547)">
<path d="M12.1609 12.8652C11.9054 12.0539 10.6684 11.4699 10.1689 11.4624L11.5802 13.7271L12.1609 12.8652Z" fill="#29402A"/>
</g>
</g>
</g>
<path d="M12.8039 14.5572C12.8034 14.1311 13.1488 13.7869 13.5775 13.7879C14.0076 13.7889 14.3585 14.137 14.3617 14.5652L13.5834 14.5636L14.3619 14.5661L14.3621 14.5671L14.3616 14.5692C14.3616 14.5706 14.3618 14.5724 14.3618 14.5742C14.3618 14.5777 14.3619 14.5823 14.3619 14.5872C14.3618 14.5967 14.3619 14.6091 14.3614 14.6233C14.3605 14.652 14.3585 14.6899 14.3551 14.7359C14.3483 14.828 14.3348 14.9538 14.3082 15.104C14.2553 15.4031 14.1489 15.8093 13.9315 16.2419C13.4841 17.1322 12.5926 18.0788 10.9168 18.4591C9.24127 18.8393 8.01428 18.3734 7.21082 17.7672C6.82042 17.4725 6.54149 17.1537 6.35897 16.9081C6.26729 16.7847 6.19838 16.6777 6.15065 16.5979C6.12686 16.5581 6.10787 16.5249 6.09413 16.4995C6.08732 16.487 6.08184 16.4758 6.07742 16.4673C6.0752 16.463 6.0723 16.459 6.07068 16.4558C6.06992 16.4543 6.06922 16.4525 6.06859 16.4513L6.06791 16.4484C6.0724 16.4458 6.12687 16.4192 6.76552 16.1109L6.06674 16.4477C5.87638 16.0621 6.03503 15.5982 6.42058 15.4121C6.80619 15.2262 7.2737 15.3885 7.4643 15.774C7.4684 15.7816 7.47569 15.7953 7.48685 15.814C7.51091 15.8542 7.55103 15.9172 7.60793 15.9938C7.72262 16.1481 7.89963 16.3495 8.144 16.534C8.61042 16.886 9.36957 17.2161 10.5569 16.9467C11.7444 16.6772 12.2765 16.054 12.5362 15.5372C12.6723 15.2663 12.7402 15.0094 12.7734 14.8215C12.7899 14.7283 12.7975 14.6544 12.8009 14.608C12.8026 14.5848 12.8034 14.5684 12.8036 14.5603C12.8036 14.5589 12.8037 14.5576 12.8037 14.5563L12.8039 14.5572Z" fill="#283F29"/>
<path d="M67.0615 4.00684C77.6706 3.62645 78.6038 19.2306 67.9902 19.9981C65.5799 20.0327 63.6557 19.5208 61.7783 17.7979C60.3833 16.4863 59.6375 14.6672 59.5185 12.708C59.2193 7.77798 62.5767 4.28971 67.0615 4.00684ZM72.1211 11.5693C71.889 8.84463 69.6373 6.83581 67.0898 7.08008C64.5373 7.32513 62.6551 9.73874 62.8877 12.4688C63.1202 15.1991 65.3795 17.2098 67.9316 16.957C70.4783 16.7048 72.3531 14.294 72.1211 11.5693Z" fill="white"/>
<path d="M31.3506 4.19549C34.0538 3.64181 37.4828 4.21204 39.2335 6.57927C40.4303 8.19821 40.6338 10.4678 40.3565 12.4318C40.3565 12.937 40.0034 13.9878 39.8165 14.4758C40.9269 15.9007 41.6075 17.1764 42.0001 18.9894C41.0957 19.3189 40.1831 19.6261 39.2637 19.9094C38.7771 18.9462 38.5974 17.9614 37.8301 17.0392C36.7799 18.04 36.211 18.6626 34.793 19.2707C32.8433 20.082 30.5856 20.2879 28.6046 19.5236C24.9591 18.1169 25.2527 12.9355 28.7833 11.6017C30.4491 10.9726 33.3878 10.6954 35.0313 11.4074C35.5231 11.4692 36.4893 11.9581 36.9512 12.1847C37.0033 11.6136 37.0215 11.0484 36.9893 10.4845C36.8657 8.20531 34.8449 6.81358 32.7022 7.0656C31.0571 7.25916 29.7639 8.10292 29.961 9.94158C29.0476 10.0966 27.6525 10.3053 26.7413 10.3869C26.1598 7.05934 28.2929 4.82195 31.3506 4.19549ZM31.9542 13.7424C31.2277 13.819 30.4375 13.9498 29.9463 14.5705C29.7036 14.8797 29.594 15.276 29.6417 15.6691C29.8326 17.2259 32.1542 17.1271 33.2129 16.7619C34.1865 16.4552 35.1415 15.7468 35.754 14.9191C34.557 14.0939 33.4011 13.72 31.9542 13.7424Z" fill="white"/>
<path d="M45.9631 4.00355C49.9446 3.85989 49.2562 8.10557 48.9083 10.9425C48.7228 12.4542 48.1335 15.4391 48.7107 16.8674C49.0954 17.8192 50.3594 17.5335 51.0588 17.0599C52.2226 16.2714 53.0769 15.0862 53.7265 13.7932C54.4317 12.4057 55.1119 10.663 54.9831 9.05804C54.8822 7.80178 53.9026 6.7776 54.2333 5.4456C54.3546 4.95831 54.6579 4.54448 55.0727 4.29923C55.5306 4.02391 56.0734 3.95494 56.5798 4.10767C58.832 4.80684 57.8493 8.77379 57.366 10.4496C56.2135 14.3125 52.5126 20.5536 47.939 19.9606C43.5184 19.3875 45.4027 12.9451 45.6735 9.92668C45.7573 8.99236 45.9799 7.67191 45.3937 6.84848C44.6815 5.88358 43.4065 7.30016 42.8355 7.81865C42.5357 7.4486 42.2567 7.06011 42 6.65521C42.0747 6.53115 42.1565 6.41187 42.2446 6.298C43.1979 5.04901 44.431 4.16749 45.9631 4.00355Z" fill="white"/>
<defs>
<filter id="filter0_f_39_547" x="8.37589" y="8.02189" width="6.79119" height="5.82146" filterUnits="userSpaceOnUse" color-interpolation-filters="sRGB">
<feFlood flood-opacity="0" result="BackgroundImageFix"/>
<feBlend mode="normal" in="SourceGraphic" in2="BackgroundImageFix" result="shape"/>
<feGaussianBlur stdDeviation="0.559614" result="effect1_foregroundBlur_39_547"/>
</filter>
<filter id="filter1_f_39_547" x="7.48194" y="8.05274" width="5.5703" height="5.61326" filterUnits="userSpaceOnUse" color-interpolation-filters="sRGB">
<feFlood flood-opacity="0" result="BackgroundImageFix"/>
<feBlend mode="normal" in="SourceGraphic" in2="BackgroundImageFix" result="shape"/>
<feGaussianBlur stdDeviation="0.994869" result="effect1_foregroundBlur_39_547"/>
</filter>
<filter id="filter2_f_39_547" x="7.31983" y="8.12061" width="5.5703" height="5.61326" filterUnits="userSpaceOnUse" color-interpolation-filters="sRGB">
<feFlood flood-opacity="0" result="BackgroundImageFix"/>
<feBlend mode="normal" in="SourceGraphic" in2="BackgroundImageFix" result="shape"/>
<feGaussianBlur stdDeviation="0.994869" result="effect1_foregroundBlur_39_547"/>
</filter>
<filter id="filter3_f_39_547" x="8.14991" y="6.52052" width="5.97166" height="6.24412" filterUnits="userSpaceOnUse" color-interpolation-filters="sRGB">
<feFlood flood-opacity="0" result="BackgroundImageFix"/>
<feBlend mode="normal" in="SourceGraphic" in2="BackgroundImageFix" result="shape"/>
<feGaussianBlur stdDeviation="0.994869" result="effect1_foregroundBlur_39_547"/>
</filter>
<filter id="filter4_f_39_547" x="8.10987" y="6.26124" width="5.97166" height="6.24412" filterUnits="userSpaceOnUse" color-interpolation-filters="sRGB">
<feFlood flood-opacity="0" result="BackgroundImageFix"/>
<feBlend mode="normal" in="SourceGraphic" in2="BackgroundImageFix" result="shape"/>
<feGaussianBlur stdDeviation="0.994869" result="effect1_foregroundBlur_39_547"/>
</filter>
<filter id="filter5_f_39_547" x="8.15577" y="9.01075" width="5.97166" height="6.24412" filterUnits="userSpaceOnUse" color-interpolation-filters="sRGB">
<feFlood flood-opacity="0" result="BackgroundImageFix"/>
<feBlend mode="normal" in="SourceGraphic" in2="BackgroundImageFix" result="shape"/>
<feGaussianBlur stdDeviation="0.994869" result="effect1_foregroundBlur_39_547"/>
</filter>
<filter id="filter6_f_39_547" x="8.17921" y="9.47266" width="5.97166" height="6.24412" filterUnits="userSpaceOnUse" color-interpolation-filters="sRGB">
<feFlood flood-opacity="0" result="BackgroundImageFix"/>
<feBlend mode="normal" in="SourceGraphic" in2="BackgroundImageFix" result="shape"/>
<feGaussianBlur stdDeviation="0.994869" result="effect1_foregroundBlur_39_547"/>
</filter>
<linearGradient id="paint0_linear_39_547" x1="5.4058" y1="-0.0107628" x2="13.7714" y2="23.2328" gradientUnits="userSpaceOnUse">
<stop stop-color="#E2F88F"/>
<stop offset="0.716866" stop-color="#E2F88F"/>
<stop offset="1" stop-color="#F7FCDA"/>
</linearGradient>
<clipPath id="clip0_39_547">
<rect width="3.43806" height="3.35768" fill="white" transform="translate(9.87891 9.25391)"/>
</clipPath>
</defs>
</svg>
