<svg width="80" height="32" viewBox="0 0 80 32" fill="none" xmlns="http://www.w3.org/2000/svg">
<path fill-rule="evenodd" clip-rule="evenodd" d="M60.3037 14.7561C59.5357 20.1945 63.0227 24.1827 68.7672 24.1827C74.5117 24.1827 79.1253 20.1945 79.8944 14.7561C80.6636 9.31769 77.1766 5.32959 71.432 5.32959C65.6875 5.32959 61.0728 9.31769 60.3037 14.7561ZM74.2972 14.7561C73.9333 17.3303 71.9877 19.1068 69.4843 19.1068C66.9798 19.1068 65.5369 17.3303 65.9009 14.7561C66.2649 12.1819 68.2104 10.4054 70.7138 10.4054C73.2183 10.4054 74.6612 12.1819 74.2972 14.7561Z" fill="#4D4D4D"/>
<path fill-rule="evenodd" clip-rule="evenodd" d="M42.7164 22.4987C40.4851 20.8349 39.3786 18.0637 39.8461 14.7561C40.6148 9.31769 45.2292 5.32959 50.9732 5.32959C56.7178 5.32959 60.2048 9.31769 59.4367 14.7561C58.6936 20.0092 54.3628 23.9092 48.8923 24.1689C50.1803 24.89 52.0522 25.4732 53.4279 25.9017C53.8872 26.0449 54.2913 26.1709 54.6 26.279C55.849 26.5864 56.6463 27.7323 56.4534 29.0989C56.227 30.7011 54.7246 31.9999 53.0964 31.9999H44.2574C41.0027 31.9999 38.7316 29.4022 39.1845 26.1978H48.6107C46.4571 25.3776 44.1809 23.7373 42.7164 22.4987ZM49.0266 19.1068C51.53 19.1068 53.4756 17.3303 53.8395 14.7561C54.2035 12.1819 52.7606 10.4054 50.2561 10.4054C47.7527 10.4054 45.8072 12.1819 45.4433 14.7561C45.0795 17.3303 46.5221 19.1068 49.0266 19.1068Z" fill="#4D4D4D"/>
<path fill-rule="evenodd" clip-rule="evenodd" d="M19.3899 14.7561C18.6211 20.1945 22.108 24.1827 27.8525 24.1827C33.5971 24.1827 38.2115 20.1945 38.9801 14.7561C39.7489 9.31769 36.262 5.32959 30.5175 5.32959C24.773 5.32959 20.1585 9.31769 19.3899 14.7561ZM33.3829 14.7561C33.0191 17.3303 31.0741 19.1068 28.57 19.1068C26.066 19.1068 24.6232 17.3303 24.9871 14.7561C25.3509 12.1819 27.296 10.4054 29.8 10.4054C32.304 10.4054 33.7468 12.1819 33.3829 14.7561Z" fill="#4D4D4D"/>
<path d="M0 23.7115L3.35171 0H9.31709L6.73418 18.2731H18.1128L17.344 23.7115H0Z" fill="#4D4D4D"/>
</svg>
