<svg width="1205" height="520" viewBox="0 0 1205 520" fill="none" xmlns="http://www.w3.org/2000/svg">
<path d="M1063.71 74.0195C1046.95 73.6954 1032.24 77.0493 1018.89 85.0369C1004.95 93.381 996.696 105.29 996.818 122.261C996.891 132.218 997.336 141.947 1003.66 150.259C1010.35 159.032 1019.4 164.792 1029.08 169.644C1046.73 178.475 1064.75 186.624 1082.02 196.119C1107.46 210.093 1128.14 229.041 1139.49 256.569C1140.84 259.85 1141.52 263.552 1141.77 267.108C1142.64 279.608 1142.69 292.035 1138.47 304.146C1134.66 315.067 1129.17 324.942 1121.7 333.732C1105.99 352.218 1086.03 364.313 1063.36 372.252C1058.14 374.083 1052.75 371.458 1050.78 366.517C1048.68 361.243 1050.9 355.232 1056.5 353.19C1068.94 348.662 1079.98 341.857 1089.8 333.132C1102.72 321.661 1113.54 308.586 1117.52 291.217C1120.19 279.576 1116.97 269.83 1108.36 261.13C1087.39 239.946 1062.36 224.772 1036.35 210.927C1018.82 201.595 1001.31 192.198 986.505 178.685C974.361 167.603 964.3 154.722 961.173 138.366C956.669 114.849 960.006 92.5709 976.816 74.0032C984.706 65.2865 994.655 59.4213 1005.47 55.0386C1017.71 50.0727 1030.54 47.8287 1043.59 46.0384C1058.8 43.9483 1073.76 45.7791 1088.34 48.8819C1105.83 52.5921 1122.58 59.3484 1136.68 70.86C1154.54 85.45 1165.76 103.758 1165.35 127.665C1165.19 136.843 1161.72 145.074 1155.8 151.935C1146.63 162.58 1136.06 171.386 1121.55 173.8C1112.28 175.34 1103.11 174.87 1093.95 172.569C1079.75 169.004 1066.92 162.823 1056.51 152.478C1052.03 148.007 1048.14 142.757 1044.8 137.354C1041.57 132.112 1043.83 125.729 1048.89 123.104C1053.7 120.609 1059.93 123.128 1062.74 128.58C1071.44 145.422 1085.05 154.342 1104.25 153.637C1117.24 153.151 1127.63 143.494 1127.15 130.184C1126.5 112.216 1118.12 98.6386 1104.84 87.8237C1092.65 77.908 1078.4 73.1364 1063.71 74.0195Z" fill="#FF6600"/>
<path d="M1205 119.45C1205.02 127.94 1201.1 134.745 1196.91 141.323C1194.03 145.827 1190.22 146.475 1186.76 143.737C1182.48 140.343 1182.09 136.219 1185.05 131.958C1187.61 128.28 1190.13 124.416 1191.74 120.276C1194.47 113.277 1191.11 107.906 1182.4 106.569C1180.02 106.213 1177.56 106.416 1175.13 106.399C1171.47 106.383 1167.59 103.434 1167.58 100.607C1167.56 96.4269 1171.13 93.2351 1175.6 93.4376C1187.61 93.9804 1197.11 98.7519 1202.39 110.012C1203.76 112.921 1204.16 116.291 1205 119.45Z" fill="#FF6600"/>
<path d="M1000.04 47.5047C993.415 46.8728 986.999 44.5235 982.414 38.8851C979.514 35.3045 976.751 31.3998 974.928 27.2115C973.179 23.1853 975.722 19.232 979.716 18.0168C982.576 17.15 985.201 19.3535 986.829 23.5336C987.947 26.4014 989.194 29.3097 990.896 31.8615C995.076 38.148 1002.76 37.7834 1008.96 31.0919C1011.21 28.6778 1012.87 25.6804 1014.52 22.7883C1017.18 18.0978 1020.44 17.4902 1025.42 19.5236C1029.02 20.9899 1029.99 24.8379 1027.93 29.1153C1023.88 37.4999 1012.82 47.2941 1000.04 47.5047Z" fill="#FF6600"/>
<path d="M1083.52 104.139C1084.5 112.572 1074.07 119.977 1067.21 119.466C1058.38 118.818 1051.04 112.823 1050.88 104.366C1050.72 96.03 1058.5 88.974 1067.34 89.0388C1076.13 89.0955 1083.54 96.0138 1083.52 104.139Z" fill="#FF6600"/>
<path d="M1201.82 175.826C1201.54 181.723 1195.25 187.84 1189.9 187.426C1183.48 186.932 1177.79 180.702 1177.97 174.367C1178.14 168.454 1184.03 163.107 1190.14 163.31C1196.57 163.528 1202.12 169.483 1201.82 175.826Z" fill="#FF6600"/>
<path d="M1131.41 9.72939C1131.46 15.1409 1127.12 20.1231 1122.31 20.1636C1117.28 20.196 1111.74 14.752 1111.85 9.8752C1111.93 5.91378 1117.39 0.00810107 1121.21 0C1125.64 0 1132.32 4.37458 1131.41 9.72939Z" fill="#FF6600"/>
<path d="M1165.77 200.591C1160.47 200.582 1156.06 196.143 1156.13 190.91C1156.21 185.79 1160.86 181.213 1165.93 181.27C1171.2 181.326 1175.98 186.138 1175.9 191.315C1175.83 196.232 1171.05 200.607 1165.77 200.591Z" fill="#FF6600"/>
<path d="M1098.11 36.8438C1092.69 36.86 1088.74 32.7284 1088.7 27.001C1088.66 21.3707 1092.63 17.5227 1098.43 17.5551C1103.89 17.5956 1107.97 21.7839 1107.95 27.3412C1107.92 32.6231 1103.57 36.8195 1098.11 36.8438Z" fill="#FF6600"/>
<path d="M1150.32 208.846C1150.4 212.151 1147.17 216.388 1144.44 216.542C1140.55 216.768 1136.8 213.244 1136.67 209.243C1136.57 206.002 1139.94 202.592 1143.39 202.421C1146.83 202.251 1150.24 205.403 1150.32 208.846Z" fill="#FF6600"/>
<path fill-rule="evenodd" clip-rule="evenodd" d="M264.972 298.241C258.613 336.624 252.246 375.015 245.797 413.892C250.139 412.531 254.457 410.862 258.921 409.833C277.14 405.604 295.303 401.019 313.684 397.633C329.49 394.716 345.514 392.804 361.521 391.265C383.807 389.119 406.166 388.495 428.55 390.115C436.205 390.666 443.91 390.496 451.565 391.03C478.858 392.942 506.191 394.903 532.268 404.097C542.378 407.662 551.727 412.952 556.855 423.054C559.261 427.777 561.222 432.97 557.779 438.47C544.501 425.411 527.165 422.689 510.12 419.335C490.718 415.512 471.073 413.754 451.314 413.454C429.19 413.122 407.058 412.555 384.95 413.041C372.101 413.324 359.245 415.074 346.486 416.881C330.065 419.214 313.522 421.336 297.434 425.241C278.258 429.891 259.488 436.226 240.645 442.156C239.089 442.65 237.801 445.453 237.242 447.422C233.087 462.141 228.266 476.651 220.676 489.969C217.265 495.955 213.206 502.072 208.014 506.438C197.191 515.56 179.384 513.745 168.213 503.53C162.939 498.71 158.783 493.25 157.811 485.853C156.531 476.075 159.974 467.756 165.467 459.995C176.079 445.008 191.803 437.028 207.633 429.211C210.865 427.615 214.333 426.464 217.484 424.731C218.675 424.083 219.841 422.471 220.068 421.134C223.206 402.772 226.238 384.39 229.166 365.99C231.879 348.929 234.439 331.844 237.032 314.767C237.469 311.907 237.753 309.015 238.255 304.948C225.091 310.571 212.834 315.796 200.577 321.021C200.269 320.897 199.964 320.775 199.661 320.656C200.787 318.42 201.735 316.079 203.064 313.973C211.619 300.412 224.256 291.727 238.417 285.076C240.928 283.886 241.811 282.541 242.095 280.094C244.209 261.964 246.583 243.866 248.471 225.712C250.164 209.421 251.379 193.081 252.724 176.757C253.153 171.556 253.339 166.331 253.688 160.28C246.283 161.762 239.648 163.074 233.022 164.419C205.097 170.09 178.412 179.819 152.067 190.286C128.915 199.473 106.499 210.498 85.4521 223.946C67.816 235.214 50.269 246.669 33.3053 258.91C25.107 264.824 18.1077 272.496 11.0273 279.827C8.41066 282.525 7.13879 286.527 5.05681 290.294C0.50399 285.028 -0.670683 278.555 0.333853 271.58C2.40773 257.193 11.1083 246.953 22.0286 238.374C53.8983 213.35 88.0688 191.914 124.678 174.586C150.463 162.386 177.375 152.867 204.976 145.738C224.111 140.796 243.561 136.835 263.077 133.716C282.341 130.63 301.881 129.139 321.453 130.273C336.983 131.172 352.173 133.919 365.183 143.259C372.361 148.411 378.825 154.495 379.749 164.047C380.956 176.595 375.334 186.503 366.414 194.555C359.512 200.793 351.476 205.459 342.476 208.222C341.973 208.376 341.471 208.546 340.953 208.611C340.734 208.643 340.483 208.424 339.551 208.011C341.301 206.796 342.832 205.889 344.177 204.762C348.884 200.833 354.076 197.301 358.095 192.749C367.654 181.917 364.624 167.352 351.76 160.652C344.703 156.982 337.129 154.487 329.141 154.479C315.183 154.463 301.217 154.852 287.267 155.33C283.305 155.467 279.376 156.537 275.066 157.242C275.682 160.49 276.322 163.609 276.857 166.736C279.198 180.5 276.695 194.134 275.666 207.8C274.985 216.768 273.892 225.712 272.806 234.647C271.308 247.01 269.631 259.356 268.059 271.71C267.954 272.487 268.043 273.289 268.043 274.577C274.621 273.541 280.883 272.317 287.202 271.596C306.353 269.409 325.544 267.384 344.606 272.074C347.887 272.884 350.982 274.764 353.923 276.538C356.426 278.045 358.281 280.329 357.025 283.594C355.818 286.761 353.355 288.568 349.985 288.811C345.416 289.127 340.839 289.386 336.262 289.427C307.738 289.645 281.393 293.704 264.972 298.241ZM213.855 454C213.487 453.633 213.123 453.265 212.761 452.898C205.146 457.856 197.207 462.376 190.021 467.893C183.006 473.28 178.137 480.409 178.874 489.969C179.198 494.222 180.243 499.018 184.132 500.686C187.988 502.347 191.771 499.317 194.695 496.425C206.555 484.719 209.861 469.198 213.855 454Z" fill="white"/>
<path d="M632.584 350.266C632.592 341.492 632.536 332.719 632.625 323.945C632.649 321.418 632.965 318.866 633.378 316.363C634.496 309.671 635.979 308.278 641.293 308.545C648.341 308.902 652.44 312.142 652.659 318.032C652.788 321.637 652.1 325.266 652.027 328.887C651.889 335.425 653.833 338.001 659.642 340.682C672.482 346.596 685.776 351.149 699.848 352.631C713.15 354.041 726.792 355.969 739.43 349.707C744.582 347.147 749.37 343.339 753.404 339.2C758.054 334.452 756.037 326.165 749.159 323.079C743.294 320.454 736.716 318.963 730.308 318.105C718.747 316.565 706.952 316.581 695.481 314.653C680.64 312.15 666.819 306.682 655.988 295.551C646.267 285.562 641.179 273.524 643.423 259.672C644.306 254.203 647.758 248.703 651.298 244.207C660.946 231.925 674.475 225.623 689.413 222.617C710.897 218.291 732.098 219.134 752.57 227.915C757.13 229.868 758.119 229.236 758.929 224.375C760.533 214.816 768.602 211.097 776.978 216.306C778.404 217.198 779.83 219.466 779.822 221.094C779.797 234.307 779.498 247.52 779.117 260.733C779.012 264.378 777.059 266.962 773.414 268.137C766.763 270.268 758.605 265.828 758.443 258.967C758.265 251.011 754.903 246.418 747.855 243.186C732.843 236.308 717.443 233.327 701.533 238.698C697.037 240.213 692.929 244.077 689.689 247.779C685.557 252.486 687.356 259.518 693.602 262.175C700.398 265.067 707.657 267.432 714.94 268.494C727.278 270.3 739.883 270.308 752.221 272.139C768.294 274.537 782.195 281.415 792.994 294.19C801.897 304.705 803.056 326.538 793.504 339.799C782.908 354.519 767.719 360.992 750.957 364.921C734.601 368.769 717.945 369.967 701.225 368.898C685.93 367.91 670.902 365.196 656.952 358.399C653.55 356.747 651.97 357.962 651.727 361.121C651.314 366.476 651.16 371.871 651.249 377.242C651.306 380.839 650.471 383.845 646.923 385.076C642.476 386.615 637.834 386.858 633.864 383.837C632.884 383.091 632.649 380.936 632.633 379.413C632.527 369.7 632.576 359.979 632.584 350.266Z" fill="white"/>
<path d="M1023.36 261.672C1026.86 257.184 1030.35 252.68 1033.87 248.208C1040.52 239.775 1046.84 230.994 1057.37 226.757C1065.54 223.46 1073.71 220.649 1082.68 219.814C1090.51 219.085 1097.15 220.6 1103.38 225.12C1114.08 232.889 1116.49 249.796 1107.97 259.388C1103.41 264.532 1096.93 266.282 1090.54 267.781C1080.53 270.138 1073.49 266.015 1069.94 256.091C1067.35 248.848 1064.22 247.236 1058.01 252.056C1051.62 257.006 1045.76 263.009 1040.94 269.482C1031.05 282.719 1026.06 298.192 1023.92 314.41C1022.66 323.97 1022.62 333.699 1022.13 343.355C1021.59 353.709 1021.64 353.709 1032.2 353.733C1033.68 353.733 1035.23 353.555 1036.63 353.927C1039.54 354.705 1042.24 355.799 1042.48 359.59C1042.73 363.584 1042.04 367.521 1037.68 368.129C1030.7 369.109 1023.59 369.117 1016.53 369.449C1014.93 369.522 1013.31 369.133 1011.71 369.133C994.193 369.109 976.678 369.125 959.172 369.109C953.039 369.101 950.585 366.46 950.957 360.376C951.209 356.309 953.825 354.178 959.091 353.757C961.481 353.563 963.887 353.449 966.26 353.117C970.011 352.583 971.283 350.241 971.259 346.555C971.162 329.414 971.121 312.272 971.243 295.122C971.356 280.831 971.712 266.533 971.988 252.243C972.037 249.456 970.57 247.901 968.002 247.649C966.017 247.447 963.976 247.706 961.983 247.941C957.163 248.508 954.384 246.645 953.153 241.849C951.93 237.086 953.064 234.364 958.135 232.978C964.559 231.22 971.218 230.321 977.764 228.968C989.964 226.457 1002.16 223.962 1014.34 221.321C1019.79 220.138 1023 222.455 1022.9 228.045C1022.73 238.293 1022.45 248.541 1022.22 258.78C1022.21 259.558 1022.3 260.344 1022.35 261.122C1022.69 261.305 1023.02 261.489 1023.36 261.672Z" fill="white"/>
<path d="M466.479 239.103C466.485 262.04 466.485 284.979 466.479 307.922C466.471 319.312 466.447 330.71 466.366 342.1C466.35 343.963 466.042 345.827 465.742 347.674C465.013 352.202 466.868 354.414 471.64 354.527C473.527 354.576 475.415 354.519 477.302 354.551C482.187 354.632 484.051 356.212 484.277 360.417C484.569 365.69 482.649 368.388 478.072 369.077C477.408 369.174 476.727 369.117 476.047 369.117C452.57 369.128 429.093 369.125 405.616 369.109C400.139 369.101 396.802 366.087 396.867 361.372C396.94 356.236 399.07 354.049 404.239 353.863C406.394 353.782 408.557 353.879 410.72 353.814C414.908 353.685 416.536 352.081 416.528 347.852C416.512 342.327 416.317 336.794 416.277 331.261C416.01 294.709 415.694 258.157 415.548 221.597C415.507 211.365 416.001 201.133 416.22 190.902C416.277 188.18 415.127 186.454 412.121 186.73C409.715 186.948 407.325 187.467 404.927 187.54C399.815 187.702 395.538 181.067 397.928 176.611C398.398 175.728 399.751 175.056 400.828 174.789C420.311 169.936 439.811 165.156 459.302 160.369C462.518 159.583 464.964 160.263 465.645 163.933C465.977 165.764 466.366 167.627 466.366 169.474C466.415 192.684 466.398 215.893 466.398 239.103C466.425 239.103 466.452 239.103 466.479 239.103Z" fill="white"/>
<path d="M900.682 245.973C900.682 255.127 900.577 264.281 900.707 273.435C900.844 282.865 901.371 292.303 901.419 301.732C901.5 317.254 901.387 332.776 901.249 348.297C901.225 351.538 902.537 352.996 905.753 353.077C909.099 353.166 912.453 353.401 915.783 353.693C919.064 353.976 920.384 356.155 920.554 359.169C920.741 362.369 920.635 365.714 916.917 366.832C913.352 367.91 909.626 368.939 905.94 369.02C885.169 369.465 864.389 369.619 843.618 369.878C842.403 369.887 841.18 369.935 839.973 369.838C833.354 369.311 831.531 367.124 831.839 360.165C832.066 355.175 834.602 353.109 840.58 353.061C850.156 352.988 849.84 352.988 849.807 343.647C849.694 316.063 849.832 288.487 849.929 260.903C849.937 258.213 850.423 255.532 850.439 252.842C850.472 248.622 848.406 247.107 844.29 247.917C840.426 248.67 836.505 249.553 833.937 245.179C831.377 240.788 832.09 236.899 836.91 234.882C842.168 232.679 847.798 231.261 853.372 229.941C866.269 226.895 879.239 224.1 892.184 221.256C893.861 220.892 895.611 220.632 897.312 220.689C900.172 220.786 901.598 222.236 901.533 225.331C901.387 232.209 901.484 239.095 901.484 245.973C901.214 245.973 900.947 245.973 900.682 245.973Z" fill="white"/>
<path d="M554.287 369.117C543.086 369.122 531.887 369.122 520.692 369.117C515.847 369.109 513.717 367.448 513.466 363.535C513.044 356.949 515.126 353.555 520.092 353.101C522.506 352.882 524.961 352.915 527.375 353.069C530.729 353.279 532.082 351.562 532.082 348.516C532.098 325.104 532.103 301.692 532.098 278.28C532.103 270.103 532.103 261.926 532.098 253.75C532.09 248.152 530.802 247.236 525.39 248.136C521.883 248.719 518.116 249.521 515.758 245.373C513.052 240.61 513.7 236.891 518.739 234.793C523.875 232.654 529.36 231.229 534.796 229.957C547.685 226.951 560.638 224.213 573.568 221.37C574.993 221.054 576.411 220.584 577.861 220.479C581.847 220.195 583.127 221.467 583.127 225.574C583.119 239.038 583.086 252.51 583.086 265.974C583.094 286.826 583.127 307.678 583.135 328.531C583.135 334.714 583.108 340.895 583.054 347.074C583.005 352.599 583.394 352.947 589.073 353.069C592.006 353.133 594.946 353.352 597.847 353.757C600.779 354.17 602.237 356.115 602.383 359.047C602.545 362.255 602.489 365.617 598.778 366.727C594.979 367.853 591.001 368.898 587.072 369.012C576.152 369.311 565.215 369.117 554.287 369.117Z" fill="white"/>
<path d="M873.179 202.235C858.71 202.956 844.882 190.302 845.003 174.651C845.125 159.162 857.528 147.156 873.349 147.148C888.887 147.148 901.517 159.518 901.436 174.837C901.363 189.443 889.446 202.6 873.179 202.235Z" fill="white"/>
<path d="M587.186 174.821C588.19 188.439 575.439 202.672 558.799 202.365C543.666 202.089 530.826 189.484 531.207 174.27C531.588 159.113 543.691 147.14 559.35 147.148C575.334 147.164 587.194 158.951 587.186 174.821Z" fill="white"/>
<path fill-rule="evenodd" clip-rule="evenodd" d="M834.561 457.548C847.069 457.977 859.439 456.406 871.631 459.63C878.088 461.339 882.009 465.455 882.503 472.009C882.916 477.631 881.142 483.156 874.256 486.258C873.916 486.412 873.632 486.712 873.098 487.109C880.397 489.053 884.18 493.671 884.334 501.051C884.488 508.293 880.802 513.786 873.235 516.654C869.8 517.958 866.001 518.76 862.339 518.881C853.185 519.197 844.015 518.987 834.561 518.987C834.561 498.612 834.561 478.441 834.561 457.548ZM848.835 508.82C854.084 508.398 858.912 508.334 863.611 507.54C867.321 506.908 869.128 504.145 869.152 500.249C869.177 496.393 866.997 493.922 863.668 493.29C858.896 492.383 853.955 492.35 848.835 491.921C848.835 497.81 848.835 502.874 848.835 508.82ZM848.867 482.183C853.963 481.811 858.605 481.633 863.206 481.074C866.406 480.685 867.5 478.271 867.556 475.281C867.613 472.26 866.487 469.821 863.319 469.416C858.621 468.809 853.857 468.655 848.867 468.29C848.867 473.143 848.867 477.234 848.867 482.183Z" fill="white"/>
<path fill-rule="evenodd" clip-rule="evenodd" d="M1021.36 492.61C1027.71 501.294 1033.95 509.816 1040.64 518.971C1035.44 518.971 1030.79 519.06 1026.17 518.89C1025.36 518.857 1024.39 517.901 1023.84 517.124C1019.77 511.323 1015.81 505.418 1011.72 499.625C1010.66 498.135 1009.46 496.328 1007.9 495.688C1003.51 493.89 1001.16 495.721 1001.15 500.452C1001.15 506.495 1001.15 512.53 1001.15 518.776C996.526 518.776 992.257 518.776 987.68 518.776C987.68 498.54 987.68 478.279 987.68 456.844C998.867 457.678 1009.88 457.97 1020.73 459.476C1027.61 460.432 1032.24 465.317 1033.41 472.414C1034.68 480.199 1031.86 486.396 1024.98 490.544C1023.94 491.168 1022.88 491.743 1021.36 492.61ZM1001.16 468.217C1001.16 473.556 1001.04 477.979 1001.26 482.378C1001.31 483.285 1002.65 484.873 1003.38 484.865C1006.84 484.833 1010.4 484.792 1013.71 483.917C1017.21 482.994 1019.12 480.312 1019.06 476.367C1019 472.576 1017.26 470.121 1013.65 469.489C1009.74 468.801 1005.74 468.655 1001.16 468.217Z" fill="white"/>
<path fill-rule="evenodd" clip-rule="evenodd" d="M965.029 518.987C960.67 518.987 956.498 519.108 952.334 518.889C951.322 518.841 950.333 517.699 949.41 516.961C949.151 516.767 949.215 516.2 949.07 515.827C947.603 512.149 947.101 507.046 944.387 505.19C941.601 503.279 936.643 504.502 932.633 504.413C930.065 504.356 927.464 504.688 924.953 504.34C921.51 503.854 920.189 505.571 919.322 508.471C918.294 511.914 917.953 516.694 915.572 518.282C912.931 520.056 908.321 518.889 904.562 518.979C903.38 519.011 902.205 518.987 900.512 518.987C904.7 508.091 908.726 497.648 912.728 487.198C916.074 478.473 919.493 469.773 922.652 460.983C923.632 458.253 925.001 457.086 927.926 457.41C930.194 457.653 932.503 457.459 934.796 457.459C941.698 457.459 941.706 457.451 944.128 463.737C950.852 481.165 957.568 498.599 964.275 516.038C964.608 516.897 964.737 517.828 965.029 518.987ZM941.835 493.646C938.879 485.043 936.067 476.877 932.924 467.707C929.992 476.602 927.44 484.306 924.937 492.026C924.783 492.488 924.977 493.055 925.009 493.646C930.461 493.646 935.776 493.646 941.835 493.646Z" fill="white"/>
<path fill-rule="evenodd" clip-rule="evenodd" d="M343.253 490.179C343.318 477.129 346.332 467.31 356.288 461.25C368.302 453.943 391.285 454.041 400.812 470C407.43 481.09 407.479 501.416 396.688 512.028C390.134 518.476 381.92 520.421 373.098 519.813C368.634 519.497 363.96 518.889 359.853 517.245C346.834 512.028 343.577 500.889 343.253 490.179ZM374.896 513.656C380.891 513.883 387.51 512.579 391.544 506.657C394.072 502.947 395.757 498.264 396.47 493.8C397.717 486.048 397.434 478.012 392.524 471.393C386.359 463.081 377.529 461.858 367.97 463.875C359.844 465.593 354.652 470.542 352.886 478.635C352.003 482.645 351.322 486.866 351.549 490.933C352.327 504.826 359.844 514.021 374.896 513.656Z" fill="white"/>
<path d="M554.238 518.59C548.3 519.902 544.242 518.598 540.726 513.624C535.395 506.074 529.117 499.18 523.219 492.018C522.547 491.208 521.753 490.495 521.072 489.79C515.572 492.375 513.352 496.271 514.033 502.355C514.624 507.661 514.154 513.089 514.154 518.719C511.473 518.719 509.115 518.719 506.458 518.719C506.458 498.621 506.458 478.449 506.458 457.856C507.487 457.767 508.645 457.718 509.796 457.564C513.052 457.127 514.324 458.302 514.227 461.785C513.992 470.137 514.154 478.498 514.154 487.684C515.588 486.404 516.552 485.618 517.427 484.752C525.155 477.023 532.881 469.292 540.604 461.558C545.181 456.981 545.781 456.811 553.299 458.172C548.316 463.097 543.61 467.78 538.871 472.43C535.614 475.622 532.398 478.862 529.003 481.892C526.946 483.739 526.93 484.954 528.777 487.174C537.339 497.454 545.651 507.945 554.238 518.59Z" fill="white"/>
<path fill-rule="evenodd" clip-rule="evenodd" d="M669.768 499.544C661.44 499.544 653.347 499.463 645.254 499.65C644.185 499.674 642.654 500.816 642.176 501.837C639.583 507.418 637.258 513.122 634.812 518.857C632.276 518.857 629.862 518.857 626.978 518.857C629.773 512.198 632.446 505.717 635.209 499.277C640.807 486.25 646.502 473.256 652.035 460.197C652.902 458.156 653.955 456.916 656.166 457.508C657.77 457.937 660.168 458.391 660.67 459.517C669.12 478.619 677.334 497.827 685.589 517.018C685.784 517.488 685.808 518.031 685.905 518.549C678.639 519.74 678.234 519.489 675.658 513.243C673.778 508.674 671.761 504.162 669.768 499.544ZM656.579 466.443C652.999 475.468 649.588 484.079 646.088 492.901C653.436 492.901 660.217 492.901 667.265 492.901C663.66 483.974 660.176 475.346 656.579 466.443Z" fill="white"/>
<path d="M323.843 459.898C322.142 462.79 321.129 464.499 320.165 466.135C316.504 465.293 313.045 464.369 309.545 463.713C294.955 460.975 281.207 469.327 280.972 487.287C280.835 498.013 283.224 507.969 294.542 511.696C300.391 513.616 307.187 512.789 313.563 512.911C315.75 512.96 317.962 512.125 320.433 511.639C320.433 513.753 320.433 515.592 320.433 517.423C309.399 521.749 288.296 521.198 280.024 511.355C274.532 504.818 272.636 497.389 272.539 489.385C272.434 479.575 274.767 470.559 282.933 463.908C290.661 457.613 299.653 456.252 309.083 457.014C313.782 457.394 318.391 458.796 323.843 459.898Z" fill="white"/>
<path d="M478.129 512.328C478.906 517.739 478.696 518.509 473.276 518.865C466.244 519.327 459.018 519.894 452.116 518.857C436.967 516.581 431.24 505.312 430.114 492.585C429.287 483.261 430.737 474.293 437.226 466.921C445.092 457.986 455.51 456.171 466.625 457.062C471.21 457.427 475.723 458.699 480.292 459.565C478.672 466.403 478.396 466.508 472.928 464.896C463.531 462.133 454.19 461.777 446.429 468.712C443.416 471.401 441.196 475.476 439.786 479.348C436.918 487.198 437.737 495.121 441.496 502.639C444.939 509.533 450.812 513.065 458.249 513.292C464.754 513.494 471.291 512.7 478.129 512.328Z" fill="white"/>
<path d="M619.112 463.899C613.085 463.899 607.301 464.053 601.525 463.835C598.462 463.721 597.636 464.791 597.66 467.772C597.79 483.269 597.717 498.775 597.717 514.28C597.717 515.73 597.717 517.18 597.717 518.8C595.092 518.8 592.848 518.8 590.135 518.8C590.135 500.695 590.135 482.589 590.135 463.964C582.771 463.964 575.844 463.964 568.772 463.964C568.772 461.736 568.772 460.019 568.772 457.791C570.23 457.718 571.64 457.581 573.049 457.581C586.8 457.57 600.55 457.567 614.3 457.573C619.793 457.581 619.801 457.589 619.112 463.899Z" fill="white"/>
<path d="M785.452 512.611C785.452 514.888 785.452 516.71 785.452 518.76C773.276 518.76 761.173 518.76 748.729 518.76C748.729 498.596 748.729 478.327 748.729 458.059C748.981 457.921 749.199 457.702 749.434 457.686C756.336 457.297 756.336 457.305 756.336 464.094C756.336 478.665 756.336 493.239 756.336 507.815C756.336 509.265 756.336 510.716 756.336 512.611C766.236 512.611 775.747 512.611 785.452 512.611Z" fill="white"/>
<path d="M716.277 518.776C713.692 518.776 711.448 518.776 709.034 518.776C709.034 498.54 709.034 478.514 709.034 458.269C711.505 458.269 713.741 458.269 716.277 458.269C716.277 478.433 716.277 498.451 716.277 518.776Z" fill="white"/>
</svg>
